<?xml version="1.0" encoding="UTF-8"?>
<svg width="110px" height="47px" viewBox="0 0 110 47" version="1.1" xmlns="http://www.w3.org/2000/svg" xmlns:xlink="http://www.w3.org/1999/xlink">
    <!-- Generator: Sketch 49 (51002) - http://www.bohemiancoding.com/sketch -->
    <title>Layer_2</title>
    <desc>Created with Sketch.</desc>
    <defs></defs>
    <g id="Page-1" stroke="none" stroke-width="1" fill="none" fill-rule="evenodd">
        <g id="logo_eng-(1)" transform="translate(-210.000000, -68.000000)">
            <g id="Layer_2" transform="translate(210.000000, 68.000000)">
                <path d="M105.6,21.1 C97.9,16.6 80,12.1 72.5,11.5 L66.8,11 C60.7,10.5 57.4,10.2 54.8,10.2 C52.2,10.2 37.2,11.4 37.2,11.4 C29.7,12 11.8,16.5 4.1,21 C0.5,23.1 0.1,24.6 0.1,29.5 L0.1,42 C0.1,43 0.2,44.5 1.3,45.6 C2.5,46.9 4.1,46.9 6,46.9 L6.1,46.9 L103.7,46.9 L103.8,46.9 C105.6,46.9 107.2,46.9 108.5,45.6 C109.6,44.5 109.7,43 109.7,42 L109.7,29.5 C109.6,24.7 109.2,23.2 105.6,21.1 Z" id="Shape" fill="#065837"></path>
                <path d="M108.4,42.1 C108.4,42.9 108.3,44 107.6,44.8 C106.7,45.7 105.5,45.7 103.8,45.7 L103.7,45.7 L6.1,45.7 L6,45.7 C4.3,45.7 3.1,45.7 2.2,44.8 C1.5,44 1.4,42.9 1.4,42.1 L1.4,29.6 C1.4,24.8 1.8,23.9 4.8,22.2 C12.4,17.8 30,13.4 37.4,12.8 L43.1,12.3 C49.1,11.6 52.5,11.4 55,11.4 C57.5,11.4 61.3,11.6 66.8,12.3 L72.5,12.8 C79.9,13.4 97.5,17.9 105.1,22.2 C108.1,23.9 108.5,24.8 108.5,29.6 L108.5,42.1 L108.4,42.1 Z" id="Shape" fill="#FFFFFF"></path>
                <path d="M78.6,7.2 L77.9,7 C77.7,6.9 73.1,5.7 71.6,5.7 L71.9,3.9 C71.9,3.8 71.9,3.6 71.8,3.5 C71.2,2.6 64.4,0.7 54.8,0.7 C45.3,0.7 38.3,2.5 37.7,3.3 C37.6,3.4 37.6,3.6 37.6,3.7 L38.1,5.8 C36.6,5.8 32,7.1 31.8,7.1 L31.1,7.3 L31.5,7.8 L34.2,10.7 L33.6,15.6 L33.5,16.3 L34.1,16.1 C34.7,16 35.3,15.8 36,15.6 C37.5,15.1 39.3,14.6 40.5,14.6 C40.5,14.6 41.4,14.6 42.3,14.5 C42.6,14.5 42.8,14.4 42.8,14.2 C42.9,13.8 41.9,13.1 41.6,12.9 C42.1,12.5 49.3,11.7 54.8,11.7 C54.9,11.7 55,11.7 55,11.7 C60.4,11.7 67.5,12.5 68,12.9 C67.7,13.1 66.7,13.8 66.8,14.2 C66.8,14.4 67,14.4 67.3,14.5 C68.2,14.6 69.1,14.6 69.1,14.6 C70.3,14.6 72.1,15.1 73.6,15.6 C74.3,15.8 74.9,16 75.5,16.1 L76.1,16.3 L75.4,10.8 L78.1,7.9 L78.6,7.2 Z" id="Shape" fill="#EF0B00" fill-rule="nonzero"></path>
                <path d="M69,12.2 L68.9,12.1 C68.3,11.6 61.1,10.7 54.9,10.8 C48.7,10.7 41,11.7 40.6,12.3 L40.5,12.4 L40.5,12.2 C40.5,12.1 38.8,4.4 38.7,3.9 C38.7,3.9 38.7,3.8 38.8,3.7 C39.4,2.9 46.4,1.4 54.9,1.4 C58.6,1.4 62.5,1.8 65.9,2.4 C68.6,2.9 70.5,3.4 70.8,3.8 C70.8,3.9 70.8,4 70.8,4 C70.7,4.4 69.2,11.3 69.2,11.4 L69,12.2 Z" id="Shape" fill="#065837" fill-rule="nonzero"></path>
                <path d="M39.7,13.2 L38.1,6.4 C38.1,6.4 38.1,6.4 38.1,6.4 C36.9,6.4 32.5,7.6 32.5,7.6 L35,10.2 L34.5,14.9 C34.5,14.9 36,14.5 36.7,14.3 C37.5,14.1 38.2,13.9 38.9,13.7 C39.4,13.6 39.8,13.6 40.1,13.5 C40.2,13.5 40.4,13.5 40.4,13.5 L40.3,13.4 L39.7,13.2 Z" id="Shape" fill="#065837" fill-rule="nonzero"></path>
                <path d="M69.8,13.3 L71.4,6.5 C71.4,6.5 71.4,6.5 71.4,6.5 C72.6,6.5 77,7.7 77,7.7 L74.5,10.3 L75,15 C75,15 73.5,14.6 72.8,14.4 C72,14.2 71.3,14 70.6,13.8 C70.1,13.7 69.7,13.7 69.4,13.6 C69.3,13.6 69.1,13.6 69.1,13.6 L69.2,13.5 L69.8,13.3 Z" id="Shape" fill="#065837" fill-rule="nonzero"></path>
                <g id="Group" transform="translate(4.000000, 17.000000)" fill="#EF0B00">
                    <path d="M4.9,18.7 C4.8,18.7 4.7,18.7 4.6,18.7 C4.6,20.5 4.6,22.4 4.6,24.2 C3.3,24.2 2.1,24.2 0.8,24.2 C0.8,19.3 0.8,14.4 0.8,9.6 C2.1,9.1 3.5,8.6 4.8,8.2 C8,7.1 10,8.2 10,12.3 C10.2,16.3 8.2,18.3 4.9,18.7 Z M5.1,11.7 C4.9,11.7 4.8,11.8 4.6,11.8 C4.6,13.1 4.6,14.3 4.6,15.6 C4.8,15.6 4.9,15.5 5.1,15.5 C6.1,15.3 6.5,14.3 6.4,13.1 C6.5,12 6.1,11.4 5.1,11.7 Z" id="Shape" fill-rule="nonzero"></path>
                    <path d="M24.9,16.8 C24.8,16.8 24.6,16.8 24.6,16.8 L24.6,24.2 L20.7,24.2 L20.7,3.7 C20.7,3.7 23.4,3.1 24.8,2.9 C28.1,2.3 30.6,4.1 30.6,9.1 C30.6,14.2 28.1,16.5 24.9,16.8 Z M25,7.4 C24.8,7.4 24.5,7.5 24.5,7.5 C24.5,7.5 24.5,10.9 24.5,12.6 C26.3,12.5 26.7,11.7 26.7,9.6 C26.7,7.9 26,7.2 25,7.4 Z" id="Shape" fill-rule="nonzero"></path>
                    <path d="M92,10 C91.5,9.9 91,9.8 90.4,9.7 C90.5,8.4 90.7,7.1 90.8,5.9 C91.5,6.1 92.2,6.3 92.8,6.5 C92.6,7.7 92.3,8.9 92,10 Z" id="Shape" fill-rule="nonzero"></path>
                    <path d="M89.8,22.4 C89.8,21.6 89.8,20.9 89.8,20.1 L89.8,5.7 L89.7,5.7 C89.7,5.7 89.7,5.7 89.7,5.7 C88.5,5.4 87.8,5.2 86.6,4.9 C86.6,4.9 86.6,4.9 86.6,4.9 C86.6,5.2 86.6,5.4 86.6,5.6 L86.6,14.6 C85.6,10.9 84.5,7.9 83.4,4.2 C83.3,4.2 83.3,4.2 83.2,4.2 L79.7,3.5 L79.7,15.6 C79.7,18.4 79.6,21.3 79.6,24.3 C79.6,24.3 79.7,24.3 79.7,24.3 L83.3,24.3 L83.3,14 C84.3,17.5 85.5,21 86.4,24.3 C86.4,24.3 86.5,24.3 86.5,24.3 L87.1,24.3 C88,24.3 88.8,24.3 89.7,24.3 C89.7,24.3 89.7,24.3 89.7,24.3 L89.7,22.4 L89.8,22.4 Z" id="Shape"></path>
                    <path d="M78.4,3.1 C77,2.9 74.4,2.5 74.4,2.5 L74.4,10.6 L71.5,10.6 L71.5,2.9 C71.5,2.6 71.5,2.4 71.5,2.2 C71.3,2.2 71.2,2.2 71,2.1 L67.9,1.7 C67.7,1.7 67.6,1.7 67.4,1.6 C67.4,1.6 67.4,1.6 67.4,1.6 L67.4,1.8 C67.4,5.7 67.4,9.4 67.4,12.9 L67.4,24.1 L71.5,24.1 L71.5,15.8 L74.4,15.8 L74.4,24 L74.4,24.1 L78.4,24.1 C78.4,24.1 78.4,24.1 78.4,24.1 L78.4,3.1 Z" id="Shape" fill-rule="nonzero"></path>
                    <path d="M97.2,13.8 C96.6,13.1 96.2,12.6 96.2,12.1 C96.2,11.6 96.4,11.1 97,11.2 C97.7,11.2 97.8,12.1 97.8,12.7 C97.8,12.8 97.8,13 97.8,13.1 L101.2,13.1 C101.1,10.1 100,8.2 97.3,7.7 C94.8,7.2 92.3,8.3 92.3,11.5 C92.3,13.4 93.1,15.2 94.6,16.6 C95.3,17.2 95.9,17.9 96.6,18.5 C97.2,19.1 97.5,19.5 97.5,19.9 C97.5,20.4 97.2,20.8 96.6,20.8 C95.9,20.8 95.6,20.1 95.6,19.5 C95.6,19.3 95.6,19 95.6,18.7 L92.1,18.7 C92.1,18.9 92.1,19 92.1,19.2 C92.1,22.4 93.9,24.4 96.5,24.4 C99.6,24.4 101.3,22.5 101.3,19.9 C101.3,18.4 100.4,17.2 99.1,15.8 C98.5,15.1 97.9,14.5 97.2,13.8 Z" id="Shape" fill-rule="nonzero"></path>
                    <path d="M16.4,4.6 C15,4.9 13.7,5.3 12.3,5.7 C11.3,12.2 10.3,18.4 9.3,24.2 C10.6,24.2 11.9,24.2 13.1,24.2 C13.2,23.5 13.3,22 13.3,22 L15.6,22 C15.6,22 15.8,23.5 15.9,24.2 C17.2,24.2 18.5,24.2 19.9,24.2 C18.7,17.4 17.6,10.9 16.4,4.6 Z M13.7,18.5 C13.7,18.5 14.1,14 14.4,11.7 C14.4,11.7 14.4,11.7 14.4,11.7 C14.7,13.9 15.3,18.5 15.3,18.5 L13.7,18.5 Z" id="Shape" fill-rule="nonzero"></path>
                    <path d="M38.1,1.3 C36.7,1.5 34.2,1.7 32.8,1.9 C31.7,9.5 30.7,16.8 29.6,24.2 C30.9,24.2 32.5,24.2 33.9,24.2 C34,23.3 34.1,21.5 34.1,21.5 L36.9,21.5 C36.9,21.5 37.1,23.3 37.2,24.2 C38.6,24.2 40.2,24.2 41.6,24.2 C40.5,16.4 39.3,8.9 38.1,1.3 Z M34.6,17.4 L35.5,9.2 L35.6,9.2 L36.7,17.4 L34.6,17.4 Z" id="Shape" fill-rule="nonzero"></path>
                    <path d="M60.6,0.9 C57.5,0.8 55.1,3.3 55.1,7.6 C55.1,10.9 55.1,14.2 55.1,17.6 C55.1,21.9 57.7,24.5 60.7,24.5 C63.7,24.5 66.1,21.7 66.1,17.6 C66.1,14.4 66.1,11.3 66.2,8 C66.2,3.8 64.2,1 60.6,0.9 Z M61.6,18.8 C61.6,19.3 61.2,19.8 60.6,19.8 L60.4,19.8 C59.9,19.8 59.4,19.4 59.4,18.8 L59.4,6.5 C59.4,6 59.8,5.5 60.4,5.5 L60.6,5.5 C61.1,5.5 61.6,5.9 61.6,6.5 L61.6,18.8 Z" id="Shape" fill-rule="nonzero"></path>
                    <path d="M49.7,0.8 L49.7,17.8 C49.7,17.8 49.7,17.8 49.7,17.8 C49.7,17.8 49.7,17.8 49.7,17.8 L49.7,19.3 C49.7,19.6 49.4,19.9 49.1,20 C49.1,20 49.1,20 49,20 C49,20 49,20 49,20 C49,20 49,20 49,20 L48.9,20 C48.5,20 48.2,19.7 48.2,19.3 L48.2,16.9 C47,16.9 45.6,16.9 44.4,16.9 C44.4,17.5 44.4,18.8 44.4,19.3 C44.4,22.2 46.2,24.3 48.9,24.3 C49.1,24.3 49.4,24.3 49.6,24.3 C52.5,24.1 53.8,22.1 53.8,17.7 L53.8,0.8 L49.7,0.8 Z" id="Shape" fill-rule="nonzero"></path>
                </g>
                <g id="Group" transform="translate(44.000000, 3.000000)" fill="#FFFFFF" fill-rule="nonzero">
                    <path d="M1,6.7 L0.3,0.9 L2,0.7 C3.2,0.6 4.1,1.1 4.2,2.2 C4.3,3.3 3.6,4.1 2.4,4.2 L1.9,4.3 L2.2,6.6 L1,6.7 Z M2.3,3.2 C2.7,3.1 3,2.8 2.9,2.3 C2.8,1.9 2.5,1.7 2.1,1.7 L1.6,1.8 L1.8,3.2 L2.3,3.2 Z" id="Shape"></path>
                    <polygon id="Shape" points="5.4 6.2 5.1 0.4 6.4 0.3 6.7 6.1"></polygon>
                    <polygon id="Shape" points="7.9 6 7.9 5.1 10 1.1 7.9 1.1 7.9 0.1 11.5 0.1 11.5 0.9 9.4 4.9 11.6 4.9 11.6 5.9"></polygon>
                    <polygon id="Shape" points="12.7 6 12.7 5.1 15 1.3 12.9 1.2 13 0.2 16.6 0.4 16.6 1.2 14.2 5.1 16.4 5.2 16.3 6.2"></polygon>
                    <path d="M20.1,6.6 L20.1,5.9 L18.9,5.7 L18.7,6.4 L17.4,6.2 L19.6,0.6 L20.9,0.8 L21.5,6.8 L20.1,6.6 Z M20,2.6 L19.3,4.8 L20.1,4.9 L20,2.6 Z" id="Shape"></path>
                </g>
            </g>
        </g>
    </g>
</svg>